<svg xmlns="http://www.w3.org/2000/svg" viewBox="0 0 32 32" fill="currentColor"><path d="M16 7.3A8.7 8.7 0 1 0 24.7 16 8.7 8.7 0 0 0 16 7.3zm0 14.3A5.6 5.6 0 1 1 21.6 16 5.6 5.6 0 0 1 16 21.6zm8.8-14.5a2 2 0 1 1-2-2 2 2 0 0 1 2 2zm5.7 2a6.6 6.6 0 0 0-1.8-4.7A6.6 6.6 0 0 0 24.5 1.5C22.1.7 9.9.7 7.5 1.5A6.6 6.6 0 0 0 2.1 6.9C1.3 9.3 1.3 22.7 2.1 25.1a6.6 6.6 0 0 0 4.7 4.7c2.4.8 14.6.8 17 0a6.6 6.6 0 0 0 4.7-4.7c.8-2.4.8-15.8 0-18.2zM28.2 27a4.1 4.1 0 0 1-2.3 2.3c-1.6.6-6.6.5-9.9.5s-8.3.1-9.9-.5A4.1 4.1 0 0 1 3.8 27c-.6-1.6-.5-6.6-.5-9.9s-.1-8.3.5-9.9A4.1 4.1 0 0 1 6.1 4.8c1.6-.6 6.6-.5 9.9-.5s8.3-.1 9.9.5a4.1 4.1 0 0 1 2.3 2.3c.6 1.6.5 6.6.5 9.9s.1 8.3-.5 9.9z"/></svg> 